<svg width="156" height="37" viewBox="0 0 156 37" fill="none" xmlns="http://www.w3.org/2000/svg">
<path d="M19.5 11.9C18.8333 14.4333 18.1167 16.95 17.35 19.45C16.6167 21.95 15.8333 24.4667 15 27H9.2C8.6 25.6 7.95 23.9333 7.25 22C6.55 20.0667 5.81667 17.9667 5.05 15.7C4.31667 13.4 3.55 10.9833 2.75 8.45C1.98333 5.88333 1.23333 3.3 0.5 0.699999H8.35C8.61667 1.9 8.9 3.21667 9.2 4.65C9.53333 6.05 9.86667 7.5 10.2 9C10.5667 10.5 10.9333 12.0167 11.3 13.55C11.7 15.05 12.1 16.5 12.5 17.9C12.9333 16.4333 13.35 14.9333 13.75 13.4C14.1833 11.8667 14.5833 10.3667 14.95 8.9C15.35 7.4 15.7167 5.96667 16.05 4.6C16.4167 3.2 16.7333 1.9 17 0.699999H22.4C22.6667 1.9 22.9667 3.2 23.3 4.6C23.6333 5.96667 23.9833 7.4 24.35 8.9C24.7167 10.3667 25.1 11.8667 25.5 13.4C25.9 14.9333 26.3167 16.4333 26.75 17.9C27.15 16.5 27.55 15.05 27.95 13.55C28.35 12.0167 28.7167 10.5 29.05 9C29.4167 7.5 29.75 6.05 30.05 4.65C30.3833 3.21667 30.6833 1.9 30.95 0.699999H38.7C37.9667 3.3 37.2 5.88333 36.4 8.45C35.6333 10.9833 34.8667 13.4 34.1 15.7C33.3667 17.9667 32.6333 20.0667 31.9 22C31.2 23.9333 30.55 25.6 29.95 27H24.15C23.3167 24.4667 22.5 21.95 21.7 19.45C20.9 16.95 20.1667 14.4333 19.5 11.9ZM40.873 14.05C40.873 11.7167 41.223 9.68333 41.923 7.95C42.6564 6.18333 43.6064 4.71667 44.773 3.55C45.9397 2.38333 47.273 1.5 48.773 0.899999C50.3064 0.299999 51.873 -1.07288e-06 53.473 -1.07288e-06C57.2064 -1.07288e-06 60.1564 1.15 62.323 3.45C64.4897 5.71667 65.573 9.06667 65.573 13.5C65.573 13.9333 65.5564 14.4167 65.523 14.95C65.4897 15.45 65.4564 15.9 65.423 16.3H48.523C48.6897 17.8333 49.4064 19.05 50.673 19.95C51.9397 20.85 53.6397 21.3 55.773 21.3C57.1397 21.3 58.473 21.1833 59.773 20.95C61.1064 20.6833 62.1897 20.3667 63.023 20L64.023 26.05C63.623 26.25 63.0897 26.45 62.423 26.65C61.7564 26.85 61.0064 27.0167 60.173 27.15C59.373 27.3167 58.5064 27.45 57.573 27.55C56.6397 27.65 55.7064 27.7 54.773 27.7C52.4064 27.7 50.3397 27.35 48.573 26.65C46.8397 25.95 45.3897 25 44.223 23.8C43.0897 22.5667 42.2397 21.1167 41.673 19.45C41.1397 17.7833 40.873 15.9833 40.873 14.05ZM58.373 11.2C58.3397 10.5667 58.223 9.95 58.023 9.35C57.8564 8.75 57.573 8.21667 57.173 7.75C56.8064 7.28333 56.323 6.9 55.723 6.6C55.1564 6.3 54.4397 6.15 53.573 6.15C52.7397 6.15 52.023 6.3 51.423 6.6C50.823 6.86667 50.323 7.23333 49.923 7.7C49.523 8.16667 49.2064 8.71667 48.973 9.35C48.773 9.95 48.623 10.5667 48.523 11.2H58.373ZM77.6723 13C77.6723 17.1667 79.3556 19.25 82.7223 19.25C83.4889 19.25 84.2056 19.15 84.8723 18.95C85.5389 18.75 86.1056 18.5167 86.5723 18.25V6.35C86.2056 6.28333 85.7723 6.23333 85.2723 6.2C84.7723 6.13333 84.1889 6.1 83.5223 6.1C81.5556 6.1 80.0889 6.75 79.1223 8.05C78.1556 9.35 77.6723 11 77.6723 13ZM94.0223 23.7C94.0223 28 92.9223 31.1833 90.7223 33.25C88.5556 35.35 85.1889 36.4 80.6223 36.4C79.0223 36.4 77.4223 36.25 75.8223 35.95C74.2223 35.6833 72.7389 35.3167 71.3723 34.85L72.6723 28.6C73.8389 29.0667 75.0556 29.4333 76.3223 29.7C77.6223 29.9667 79.0889 30.1 80.7223 30.1C82.8556 30.1 84.3556 29.6333 85.2223 28.7C86.1223 27.7667 86.5723 26.5667 86.5723 25.1V24.15C85.7723 24.5167 84.9389 24.8 84.0723 25C83.2389 25.1667 82.3223 25.25 81.3223 25.25C77.6889 25.25 74.9056 24.1833 72.9723 22.05C71.0389 19.8833 70.0723 16.8667 70.0723 13C70.0723 11.0667 70.3723 9.31667 70.9723 7.75C71.5723 6.15 72.4389 4.78333 73.5723 3.65C74.7389 2.51666 76.1556 1.65 77.8223 1.05C79.4889 0.416664 81.3723 0.0999976 83.4723 0.0999976C84.3723 0.0999976 85.2889 0.149998 86.2223 0.249999C87.1889 0.316664 88.1389 0.416664 89.0723 0.549998C90.0056 0.683331 90.8889 0.849998 91.7223 1.05C92.5889 1.21667 93.3556 1.4 94.0223 1.6V23.7ZM125.61 13.8C125.61 15.8667 125.31 17.7667 124.71 19.5C124.11 21.2 123.243 22.6667 122.11 23.9C120.976 25.1 119.61 26.0333 118.01 26.7C116.443 27.3667 114.676 27.7 112.71 27.7C110.776 27.7 109.01 27.3667 107.41 26.7C105.843 26.0333 104.493 25.1 103.36 23.9C102.226 22.6667 101.343 21.2 100.71 19.5C100.076 17.7667 99.7598 15.8667 99.7598 13.8C99.7598 11.7333 100.076 9.85 100.71 8.15C101.376 6.45 102.276 5 103.41 3.8C104.576 2.6 105.943 1.66667 107.51 0.999998C109.11 0.333332 110.843 -1.07288e-06 112.71 -1.07288e-06C114.61 -1.07288e-06 116.343 0.333332 117.91 0.999998C119.51 1.66667 120.876 2.6 122.01 3.8C123.143 5 124.026 6.45 124.66 8.15C125.293 9.85 125.61 11.7333 125.61 13.8ZM118.01 13.8C118.01 11.5 117.543 9.7 116.61 8.4C115.71 7.06667 114.41 6.4 112.71 6.4C111.01 6.4 109.693 7.06667 108.76 8.4C107.826 9.7 107.36 11.5 107.36 13.8C107.36 16.1 107.826 17.9333 108.76 19.3C109.693 20.6333 111.01 21.3 112.71 21.3C114.41 21.3 115.71 20.6333 116.61 19.3C117.543 17.9333 118.01 16.1 118.01 13.8ZM155.981 13.8C155.981 15.8667 155.681 17.7667 155.081 19.5C154.481 21.2 153.614 22.6667 152.481 23.9C151.348 25.1 149.981 26.0333 148.381 26.7C146.814 27.3667 145.048 27.7 143.081 27.7C141.148 27.7 139.381 27.3667 137.781 26.7C136.214 26.0333 134.864 25.1 133.731 23.9C132.598 22.6667 131.714 21.2 131.081 19.5C130.448 17.7667 130.131 15.8667 130.131 13.8C130.131 11.7333 130.448 9.85 131.081 8.15C131.748 6.45 132.648 5 133.781 3.8C134.948 2.6 136.314 1.66667 137.881 0.999998C139.481 0.333332 141.214 -1.07288e-06 143.081 -1.07288e-06C144.981 -1.07288e-06 146.714 0.333332 148.281 0.999998C149.881 1.66667 151.248 2.6 152.381 3.8C153.514 5 154.398 6.45 155.031 8.15C155.664 9.85 155.981 11.7333 155.981 13.8ZM148.381 13.8C148.381 11.5 147.914 9.7 146.981 8.4C146.081 7.06667 144.781 6.4 143.081 6.4C141.381 6.4 140.064 7.06667 139.131 8.4C138.198 9.7 137.731 11.5 137.731 13.8C137.731 16.1 138.198 17.9333 139.131 19.3C140.064 20.6333 141.381 21.3 143.081 21.3C144.781 21.3 146.081 20.6333 146.981 19.3C147.914 17.9333 148.381 16.1 148.381 13.8Z" fill="#00B7C2"/>
</svg>
